<svg width="280" height="60" viewBox="0 0 280 60" fill="none" xmlns="http://www.w3.org/2000/svg">
<g clip-path="url(#clip0_448_1021)">
<path d="M73.5956 34.4293C73.5956 37.1037 72.078 38.8542 68.651 38.8542C65.2729 38.8542 64 37.1523 64 34.4293V23.4885C64 23.294 64.0979 23.1967 64.2937 23.1967H65.6156C65.8114 23.1967 65.9093 23.294 65.9093 23.4885V34.3807C65.9093 36.2284 66.6437 37.3468 68.7489 37.3468C70.8051 37.3468 71.8332 36.4229 71.8332 34.3807V23.4885C71.8332 23.294 71.9311 23.1967 72.1269 23.1967H73.4488C73.6446 23.1967 73.7425 23.294 73.7425 23.4885V34.4293H73.5956Z" fill="white"/>
<path d="M86.4707 38.0275C86.5197 38.1734 86.5687 38.3192 86.5687 38.4165C86.5687 38.5137 86.4707 38.5624 86.2749 38.5624H84.8551C84.5614 38.5624 84.5124 38.4651 84.4635 38.3192L83.1906 33.9915H78.5886L77.4626 38.3192C77.4136 38.4651 77.3157 38.5624 77.0709 38.5624H75.6512C75.4064 38.5624 75.3574 38.5624 75.3574 38.4165C75.3574 38.3192 75.4064 38.1734 75.4553 38.0275L79.9594 23.4884C80.0084 23.2452 80.0573 23.2452 80.3021 23.2452H81.624C81.8198 23.2452 81.8687 23.2452 81.9667 23.4884L86.4707 38.0275ZM81.4281 27.4757C81.2323 26.7949 81.0365 25.9683 80.8896 25.3361H80.8406C80.7427 25.871 80.5469 26.8435 80.3511 27.4757L78.9803 32.4355H82.75L81.4281 27.4757Z" fill="white"/>
<path d="M92.8366 23.2453C94.5501 23.2453 97.3407 23.4398 97.3407 26.8923C97.3407 29.2263 95.872 30.1502 95.0886 30.5392C96.2147 30.8796 97.8792 31.609 97.8792 34.332C97.8792 36.1798 96.949 37.2496 96.4105 37.6872C95.5293 38.4166 94.2564 38.5138 92.4449 38.5138H89.1648C88.969 38.5138 88.8711 38.4166 88.8711 38.2221V23.4885C88.8711 23.294 88.969 23.1967 89.1648 23.1967H92.8366V23.2453ZM92.347 30.0043C93.6689 30.0043 95.3334 29.7126 95.3334 27.0868C95.3334 25.0931 94.1585 24.8014 92.8366 24.8014H90.7804V30.0043H92.347ZM92.9345 37.0064C94.4032 37.0064 95.872 36.4716 95.872 34.2834C95.872 32.0952 94.4032 31.5117 92.8366 31.5117H90.7804V37.0064H92.9345Z" fill="white"/>
<path d="M113.104 17.2643C115.454 17.2643 119.322 17.5074 119.322 22.3214C119.322 25.5793 117.266 26.8436 116.238 27.3784C117.853 27.8647 120.105 28.8858 120.105 32.6786C120.105 35.2558 118.783 36.7146 118.049 37.3953C116.825 38.4165 115.063 38.5624 112.566 38.5624H108.013C107.768 38.5624 107.621 38.4165 107.621 38.1734V17.6047C107.621 17.3615 107.768 17.2156 108.013 17.2156H113.104V17.2643ZM112.419 26.649C114.23 26.649 116.531 26.26 116.531 22.6131C116.531 19.8414 114.916 19.4524 113.055 19.4524H110.167V26.649H112.419ZM113.202 36.3742C115.258 36.3742 117.266 35.6448 117.266 32.5814C117.266 29.5666 115.209 28.74 113.055 28.74H110.167V36.3742H113.202Z" fill="white"/>
<path d="M133.422 33.6512C133.422 35.5962 133.52 35.8879 133.813 36.7632C133.96 37.1522 134.401 37.7357 134.401 37.9302C134.401 38.0761 134.254 38.1247 134.107 38.1734L132.883 38.9027C132.736 38.9514 132.687 39 132.638 39C132.149 39 131.61 37.3467 131.463 36.9091C131.072 37.2495 129.554 39 126.959 39C124.462 39 122.896 37.3953 122.896 34.6237C122.896 29.3721 129.162 29.2748 131.121 29.2262V28.1078C131.121 26.3087 130.533 25.2875 128.33 25.2875C126.225 25.2875 124.805 26.26 124.511 26.26C124.413 26.26 124.316 26.2114 124.316 26.1142L123.924 25.0444C123.875 24.8985 123.826 24.8013 123.826 24.6554C123.826 24.1205 126.714 23.2452 128.722 23.2452C132.345 23.2452 133.568 24.9958 133.568 27.6216V33.6512H133.422ZM131.023 31.1226C129.652 31.1712 125.148 31.1712 125.148 34.4292C125.148 35.6934 125.833 37.055 127.449 37.055C129.064 37.055 130.533 35.5476 131.023 35.1099V31.1226Z" fill="white"/>
<path d="M143.409 37.9789C143.458 38.0275 143.458 38.1247 143.458 38.1734C143.458 38.5137 141.94 38.9514 140.814 38.9514C139.296 38.9514 138.268 38.3192 137.877 37.444C137.436 36.4228 137.436 34.0402 137.436 32.9218V16.8266C137.436 16.6321 137.534 16.4863 137.632 16.4376L139.199 16.0486C139.443 16 139.345 16 139.59 16C139.786 16 139.786 16.2431 139.786 16.389V33.019C139.786 33.9915 139.835 35.5476 139.884 35.9366C139.933 36.277 140.227 37.0063 141.157 37.0063C141.989 37.0063 142.577 36.6173 142.772 36.6173C142.968 36.6173 142.968 36.7146 142.968 36.8118L143.409 37.9789Z" fill="white"/>
<path d="M153.494 37.3953C153.543 37.5412 153.543 37.5898 153.543 37.6871C153.543 38.0761 151.193 38.9514 149.48 38.9514C148.109 38.9514 146.983 38.4651 146.542 37.8816C145.612 36.9091 145.612 35.4989 145.612 34.3806V25.5307H143.262C143.066 25.5307 143.066 25.3362 143.066 25.1416V23.9746C143.066 23.7801 143.066 23.5856 143.262 23.5856H145.612V19.3066C145.612 19.1121 145.759 19.0148 145.955 18.9175L147.619 18.4313C147.717 18.4313 147.766 18.3827 147.815 18.3827C147.962 18.3827 147.962 18.5285 147.962 18.723V23.537H152.613C152.809 23.537 152.956 23.5856 152.956 23.7315C152.956 23.7801 152.907 23.8774 152.907 23.926L152.515 25.1416C152.466 25.2875 152.319 25.4334 152.123 25.4334H148.011V34.2833C148.011 35.5476 148.011 36.8118 149.871 36.8118C151.34 36.8118 152.613 35.9852 152.858 35.9852C153.005 35.9852 153.054 36.0825 153.054 36.1797L153.494 37.3953Z" fill="white"/>
<path d="M160.006 38.1733C160.006 38.4164 159.86 38.5623 159.615 38.5623H157.999C157.754 38.5623 157.608 38.4164 157.608 38.1733V25.5306H155.16C154.915 25.5306 154.768 25.3847 154.768 25.1415V23.9745C154.768 23.7314 154.915 23.5855 155.16 23.5855H159.566C159.909 23.5855 159.957 23.78 159.957 24.0718V38.1733H160.006ZM158.685 20.0358C157.608 20.0358 156.775 19.2092 156.775 18.1394C156.775 17.0697 157.608 16.243 158.685 16.243C159.762 16.243 160.594 17.1183 160.594 18.1394C160.594 19.1606 159.713 20.0358 158.685 20.0358Z" fill="white"/>
<path d="M174.251 37.1523C174.3 37.2496 174.349 37.2982 174.349 37.3954C174.349 37.7358 171.705 39.0001 169.404 39.0001C165.684 39.0001 163.529 36.0826 163.529 31.5604C163.529 26.3574 166.026 23.1967 169.894 23.1967C171.999 23.1967 174.398 24.6555 174.398 25.1417C174.398 25.239 174.349 25.2876 174.3 25.3849L173.566 26.6978C173.517 26.795 173.468 26.8923 173.37 26.8923C173.223 26.8923 171.901 25.2876 170.041 25.2876C166.956 25.2876 166.075 27.573 166.075 31.1227C166.075 33.943 166.663 36.9578 169.698 36.9578C171.754 36.9578 173.37 35.6935 173.566 35.6935C173.664 35.6935 173.713 35.7908 173.761 35.888L174.251 37.1523Z" fill="white"/>
<path d="M200.641 38.1734C200.641 38.4165 200.494 38.5624 200.249 38.5624H198.438C198.193 38.5624 198.046 38.4165 198.046 38.1734L197.557 22.1755C197.508 21.5433 197.557 20.7653 197.606 20.2304L197.557 20.1818C197.508 20.8626 197.41 21.6406 197.165 22.37L193.346 33.2622C193.2 33.5539 193.151 33.6025 192.857 33.6025H191.927C191.633 33.6025 191.535 33.5539 191.437 33.2622L187.814 22.4186C187.569 21.6892 187.472 20.9112 187.423 20.2304L187.374 20.2791C187.423 20.814 187.423 21.592 187.423 22.2241L186.933 38.222C186.933 38.4651 186.786 38.611 186.541 38.611H184.73C184.485 38.611 184.338 38.4651 184.338 38.222L185.513 17.6533C185.513 17.4101 185.66 17.2643 185.905 17.2643H187.961C188.206 17.2643 188.206 17.3129 188.304 17.556L192.025 28.3023C192.171 28.7886 192.318 29.5666 192.416 30.2474H192.465C192.612 29.6152 192.759 28.7886 192.906 28.3023L196.627 17.556C196.724 17.3129 196.724 17.2643 196.969 17.2643H199.025C199.27 17.2643 199.417 17.4101 199.417 17.6533L200.641 38.1734Z" fill="white"/>
<path d="M209.796 39.0001C205.586 39.0001 203.725 35.5963 203.725 31.1713C203.725 26.8923 205.537 23.1967 210.09 23.1967C214.398 23.1967 216.21 26.6005 216.21 31.0255C216.21 35.3532 214.349 39.0001 209.796 39.0001ZM213.615 30.9768C213.615 27.9134 212.783 25.1417 209.943 25.1417C207.103 25.1417 206.271 27.8162 206.271 30.8796C206.271 34.4293 207.103 37.0551 209.992 37.0551C212.783 37.0551 213.615 34.5265 213.615 30.9768Z" fill="white"/>
<path d="M230.405 33.6512C230.405 35.0613 230.405 35.9852 230.748 36.7632C230.895 37.1522 231.335 37.7357 231.335 37.9302C231.335 38.0761 231.188 38.1247 231.042 38.1734L229.818 38.9027C229.671 38.9514 229.622 39 229.573 39C229.132 39 228.594 37.6385 228.447 37.1522C227.713 37.6871 226.146 39 223.845 39C220.516 39 218.949 35.2558 218.949 31.4144C218.949 26.9408 220.565 23.1966 224.188 23.1966C226.146 23.1966 227.174 23.7315 228.055 24.2664V16.8266C228.055 16.6321 228.153 16.4863 228.251 16.4376L229.769 16.0486C230.014 16 229.916 16 230.16 16C230.405 16 230.405 16.2431 230.405 16.389V33.6512ZM228.006 26.3087C227.027 25.7738 225.999 25.2875 224.432 25.2875C221.74 25.2875 221.495 28.3509 221.495 31.3657C221.495 33.9915 221.691 36.9577 224.237 36.9577C225.852 36.9577 227.223 35.5962 228.006 35.1099V26.3087Z" fill="white"/>
<path d="M243.038 23.9745C243.038 23.78 243.136 23.6341 243.234 23.5855L244.801 23.1965C245.045 23.1479 244.948 23.1479 245.192 23.1479C245.388 23.1479 245.388 23.391 245.388 23.5369V34.6236C245.388 35.353 245.437 36.0337 245.731 36.6659C245.927 37.0549 246.318 37.6384 246.318 37.8329C246.318 37.9788 246.171 38.0274 246.025 38.076L244.801 38.8054C244.654 38.854 244.605 38.9026 244.556 38.9026C244.066 38.9026 243.724 37.7843 243.381 37.0549C242.5 37.7843 240.835 38.9026 239.024 38.9026C234.813 38.9026 234.471 36.4714 234.471 34.2346V23.9745C234.471 23.78 234.569 23.6341 234.666 23.5855L236.233 23.1965C236.478 23.1479 236.38 23.1479 236.625 23.1479C236.821 23.1479 236.821 23.391 236.821 23.5369V34.3319C236.821 35.6934 237.359 36.8604 239.366 36.8604C240.346 36.8604 242.353 35.8392 242.94 35.2557V23.9745H243.038Z" fill="white"/>
<path d="M255.472 37.9789C255.521 38.0275 255.521 38.1247 255.521 38.1734C255.521 38.5137 254.004 38.9514 252.878 38.9514C251.36 38.9514 250.332 38.3192 249.94 37.444C249.5 36.4228 249.5 34.0402 249.5 32.9218V16.8266C249.5 16.6321 249.597 16.4863 249.695 16.4376L251.262 16.0486C251.507 16 251.409 16 251.654 16C251.85 16 251.85 16.2431 251.85 16.389V33.019C251.85 33.9915 251.898 35.5476 251.947 35.9366C251.996 36.277 252.29 37.0063 253.22 37.0063C254.053 37.0063 254.64 36.6173 254.836 36.6173C255.032 36.6173 255.032 36.7146 255.032 36.8118L255.472 37.9789Z" fill="white"/>
<path d="M267.712 37.1521C267.761 37.2494 267.81 37.2981 267.81 37.3953C267.81 37.7357 265.166 38.9999 262.865 38.9999C258.704 38.9513 256.256 35.8392 256.256 31.0739C256.256 26.5031 258.557 23.1479 262.473 23.1479C267.712 23.1479 268.152 28.205 268.152 30.8794C268.152 31.317 268.152 31.5602 267.81 31.5602H258.801C258.801 33.4566 259.536 36.8604 263.11 36.8604C265.166 36.8604 266.782 35.5961 266.977 35.5961C267.075 35.5961 267.124 35.6933 267.173 35.7906L267.712 37.1521ZM265.607 29.6637C265.607 28.0591 265.068 25.1415 262.326 25.1415C259.438 25.1415 258.801 28.1077 258.801 29.6637H265.607Z" fill="white"/>
<path d="M278.924 25.6764C278.777 25.9196 278.728 26.0654 278.532 26.0654C278.336 26.0654 277.015 25.2388 275.35 25.2388C274.077 25.2388 273.049 25.8709 273.049 27.2811C273.049 30.6849 280.001 29.761 280.001 34.575C280.001 37.4925 277.7 38.9999 275.007 38.9999C273.49 38.9999 270.258 38.1246 270.258 37.4925C270.258 37.3466 270.307 37.2494 270.405 37.1035L270.846 36.131C270.944 35.9365 271.042 35.8392 271.14 35.8392C271.433 35.8392 273.049 36.909 275.203 36.909C276.574 36.909 277.7 36.1796 277.7 34.6722C277.7 31.4143 270.748 32.1437 270.748 27.4756C270.748 24.947 272.706 23.1479 275.497 23.1479C276.574 23.1479 278.385 23.6341 279.218 24.0718C279.463 24.2177 279.56 24.3149 279.56 24.4608C279.56 24.558 279.462 24.6553 279.414 24.7525L278.924 25.6764Z" fill="white"/>
<path d="M42.4728 0.244999C30.7329 6.36997 22.6497 16.8016 22.5534 30.2957C22.4572 44.5075 33.2348 55.3698 45.937 59.9635C46.5625 60.2028 49.0644 59.1979 48.1984 58.9108C20.677 48.9577 17.8863 14.409 44.1086 0.723513C45.6483 -0.137812 43.1464 -0.137812 42.4728 0.244999Z" fill="#00A6CC"/>
<path d="M20.0513 16.4188C12.2087 17.9022 1.33483 21.826 0.131973 31.0613C-1.35957 42.1628 10.0916 47.2829 19.3296 48.3356C19.9551 48.3835 22.5051 47.3786 21.1098 47.1872C13.4596 46.3259 5.37643 43.1677 3.01883 35.1765C0.0838592 25.1277 11.5351 19.0027 19.522 17.4715C20.6287 17.2801 21.9277 16.036 20.0513 16.4188Z" fill="#00A6CC"/>
<path d="M36.1703 18.8114C42.2808 20.5819 49.3536 23.8837 49.2574 31.2049C49.1611 38.0477 41.7997 43.2635 36.6033 46.4217C35.0155 47.3787 37.325 48.1443 38.3354 47.5223C44.6384 43.6463 51.9037 37.9998 51.9999 29.9608C52.0961 22.5438 43.7242 18.8593 37.7581 17.1366C36.7477 16.8017 34.5344 18.3329 36.1703 18.8114Z" fill="#00A6CC"/>
</g>
<defs>
<clipPath id="clip0_448_1021">
<rect width="280" height="60" fill="white"/>
</clipPath>
</defs>
</svg>
